PathFileType	4	(X/Y/Z)	testWalking.trc	
DataRate	CameraRate	NumFrames	NumMarkers	Units	OrigDataRate	OrigDataStartFrame	OrigNumFrames
120	120	4	28	mm	120	203	183
Frame#	Time	RSHO			LSHO			C7			RASI			LASI			SACR			RTHAP			RTHAD			RTHLD			RLEPI			RTIAP			RTIAD			RLMAL			RHEEL			RP1MT			RP5MT			RTOE			LTHAP			LTHAD			LTHLD			LLEPI			LTIAP			LTIAD			LLMAL			LHEEL			LP1MT			LP5MT			LTOE			
		X1	Y1	Z1	X2	Y2	Z2	X3	Y3	Z3	X4	Y4	Z4	X5	Y5	Z5	X6	Y6	Z6	X7	Y7	Z7	X8	Y8	Z8	X9	Y9	Z9	X10	Y10	Z10	X11	Y11	Z11	X12	Y12	Z12	X13	Y13	Z13	X14	Y14	Z14	X15	Y15	Z15	X16	Y16	Z16	X17	Y17	Z17	X18	Y18	Z18	X19	Y19	Z19	X20	Y20	Z20	X21	Y21	Z21	X22	Y22	Z22	X23	Y23	Z23	X24	Y24	Z24	X25	Y25	Z25	X26	Y26	Z26	X27	Y27	Z27	X28	Y28	Z28	

69	0.56667	898.40277	1427.50867	193.04472	887.00549	1468.80615	-178.42514	841.38782	1524.89197	7.73285	947.67725	1000.53552	135.76283	931.37927	974.49457	-134.34222	754.48950	1012.44049	2.55717	1028.01440	713.91412	82.94130	1030.45081	611.51550	91.30385	956.63837	619.35986	154.31743	967.14160	507.94263	131.01912	1010.44928	353.04901	54.91805	1009.64685	233.77231	47.69199	966.23132	86.66374	83.31227	918.75085	46.72394	32.53758	1090.75232	35.79523	124.01530	1117.86682	41.34032	2.47217	1167.61633	51.93270	44.30075	982.02643	649.75861	-104.99024	974.41107	566.87341	-109.87710	886.64447	578.67157	-165.72893	876.26453	483.05713	-158.47040	783.51440	357.20120	-78.14262	691.16003	298.83096	-75.47017	535.30548	255.84277	-108.85750	489.62817	290.24411	-48.49530	506.07355	104.84911	-136.92349	542.20734	88.57956	-21.49248	552.94000	55.49090	-62.48356	
70	0.57500	910.55707	1429.98645	193.00182	897.10590	1470.22461	-178.51476	852.53015	1526.92517	7.79170	958.01843	1001.92688	136.78239	941.99548	976.77893	-133.74309	765.22858	1014.45300	3.57860	1034.86646	713.34650	84.69023	1034.26941	610.73163	93.19286	960.51935	620.01367	154.95692	969.21045	508.24521	131.85683	1011.91559	353.22015	56.06853	1010.38269	234.01508	48.53151	966.11853	86.75594	83.51546	918.65588	46.90919	32.56833	1090.72461	35.71451	124.06239	1117.84094	41.41075	2.54044	1167.48364	51.97949	44.45453	999.51123	653.96393	-104.97713	994.32422	571.10944	-110.00644	906.56586	580.92780	-166.49854	899.02954	485.70093	-159.32593	806.15631	360.44412	-78.75864	713.37164	303.11630	-75.81032	556.66797	261.89038	-108.76331	510.77502	295.54715	-48.20840	529.07587	110.81464	-138.01094	565.22925	94.20574	-22.39970	576.22852	61.30216	-63.75089	
71	0.58333	922.70795	1432.44019	192.92012	907.15546	1471.52991	-178.65623	863.54706	1528.89648	7.77455	968.24524	1003.26532	137.84196	953.01508	978.96936	-132.83267	775.82190	1016.42682	4.42758	1041.01697	712.83423	86.42055	1037.22131	609.55579	95.02007	964.22394	620.65509	155.58571	970.83038	508.63788	132.60008	1013.07556	353.46024	56.94096	1010.92059	234.28996	49.21837	966.06824	86.81056	83.71205	917.96576	47.20140	33.13554	1090.78430	35.82526	124.24757	1117.80725	41.47767	2.59984	1167.34302	52.04641	44.61537	1017.22321	658.39886	-105.04926	1014.07318	575.59399	-110.20804	926.03693	583.48260	-167.34991	921.41180	488.70251	-160.07318	829.16260	363.73914	-79.49643	735.97815	307.26221	-75.89790	578.92908	266.82333	-108.73689	532.17090	299.80954	-48.14435	553.59937	115.76134	-138.77141	589.46228	99.15659	-22.78056	601.34589	66.51440	-64.24651	
72	0.59167	934.77136	1434.91211	192.77699	917.31787	1472.71484	-178.89845	874.50769	1530.78076	7.70111	978.43933	1004.58649	138.94185	963.81415	980.79474	-131.75511	786.36780	1018.39130	5.16934	1047.02283	712.20801	88.10033	1040.96338	608.29364	96.63094	967.72302	621.37140	156.13011	972.39349	508.98404	133.18230	1013.74335	353.75809	57.35541	1011.24408	234.54428	49.61676	965.98779	86.82109	83.89445	917.25861	47.50565	33.74934	1090.66565	35.81463	124.43840	1117.78113	41.53070	2.66716	1167.18848	52.12618	44.75485	1034.86975	663.04517	-105.24067	1033.60718	580.24683	-110.64853	945.09424	586.40100	-168.29083	943.50140	492.12305	-160.68242	852.13141	366.90039	-80.34998	759.09985	311.01584	-76.24910	601.94879	270.63019	-108.80334	553.71350	303.04538	-47.98248	579.49066	119.53378	-139.35765	614.39258	103.21075	-23.05260	627.52014	70.92480	-64.20004	
